# xmcd
#
# Track frame offsets:
#	150
#	20305
#	38840
#	58670
#	73792
#	90740
#	116560
#	141282
#	164057
#	187517
#	220637
#	242840
#	267935
#	289297
#	314460
#	331547
#
# Disc length: 4709
#
# Revision: 2
# Processed by: cddbd v1.5.1PL0 Copyright (c) Steve Scherf et al.
# Submitted via: CDex 1.40Beta9
# Normalized: r1:DSETVAR1,TDELIM( - )
#
DISCID=e6126310
DTITLE=Various Artist - Dedicated Followers Of Passion - Blue Room JFK [CD2]
DYEAR=1900
DGENRE=National Folk
TTITLE0=Embargo - hysterie
TTITLE1=Mauro Picotto - Iguana (Mega Voices Mix)
TTITLE2=Mabel - Disco Disco
TTITLE3=Franchino - 999
TTITLE4=Don Diablo - Casa Del Diablo
TTITLE5=Boyos - Time Warp
TTITLE6=Allure - No More Tears
TTITLE7=The Warrior - Warrior
TTITLE8=Vincent De Moor - Fly Away
TTITLE9=Delerium - Silence (Dj Tiesto Sunrise Mix)
TTITLE10=Da Hool - Eichelruck
TTITLE11=Goldenscan - Sunrise
TTITLE12=Planet Perfecto - Bullet In The Gun (Rob Serale Mix)
TTITLE13=Blank and Jones - The Nightfly
TTITLE14=Pascale - Plastic Angel (Plastic Angel Remix)
TTITLE15=Sureal - You Take My Breath Away
EXTD=ID3G: 82
EXTT0=
EXTT1=
EXTT2=
EXTT3=
EXTT4=
EXTT5=
EXTT6=
EXTT7=
EXTT8=
EXTT9=
EXTT10=
EXTT11=
EXTT12=
EXTT13=
EXTT14=
EXTT15=
PLAYORDER=
